<?xml version="1.0" encoding="utf-8"?>
<!-- Generator: Adobe Illustrator 24.3.0, SVG Export Plug-In . SVG Version: 6.00 Build 0)  -->
<svg version="1.1" id="Livello_1" xmlns="http://www.w3.org/2000/svg" xmlns:xlink="http://www.w3.org/1999/xlink" x="0px" y="0px"
	 viewBox="0 0 150 142.2" style="enable-background:new 0 0 150 142.2;" xml:space="preserve">
<style type="text/css">
	.st0{fill:#FBBA07;}
</style>
<path class="st0" d="M95.5,54.4c-1.6,0-3.3-1.2-3.8-2.8L75.9,3.1c-0.5-1.5-1.3-1.5-1.8,0L58.3,51.6c-0.5,1.5-2.2,2.8-3.8,2.8h-51
	c-1.6,0-1.9,0.8-0.6,1.7l41.3,30c1.3,0.9,2,2.9,1.5,4.5l-15.8,48.5c-0.5,1.5,0.2,2,1.5,1.1l41.3-30c1.3-1,3.4-1,4.7,0l41.3,30
	c1.3,0.9,2,0.5,1.5-1.1l-15.8-48.5c-0.5-1.5,0.1-3.5,1.5-4.5l41.3-30c1.3-0.9,1.1-1.7-0.6-1.7C146.6,54.4,95.5,54.4,95.5,54.4z"/>
</svg>
