<?xml version="1.0" encoding="utf-8"?>
<!-- Generator: Adobe Illustrator 21.1.0, SVG Export Plug-In . SVG Version: 6.00 Build 0)  -->
<svg version="1.1" id="Livello_1" xmlns="http://www.w3.org/2000/svg" xmlns:xlink="http://www.w3.org/1999/xlink" x="0px" y="0px"
	 viewBox="0 0 252 118.5" style="enable-background:new 0 0 252 118.5;" xml:space="preserve">
<style type="text/css">
	.st0{clip-path:url(#SVGID_2_);fill:#F1F2F2;}
	.st1{fill:#EA148C;}
	.st2{fill:#BAD66B;}
	.st3{fill:#7491C7;}
	.st4{fill:#F9AA4D;}
	.st5{fill:#42C7F2;}
	.st6{clip-path:url(#SVGID_4_);fill:#FFD82E;}
	.st7{clip-path:url(#SVGID_4_);fill:#EA148C;}
	.st8{clip-path:url(#SVGID_4_);fill:#4058A3;}
	.st9{clip-path:url(#SVGID_6_);}
	.st10{clip-path:url(#SVGID_6_);fill:none;stroke:#FFFFFF;stroke-width:1.827;}
	.st11{clip-path:url(#SVGID_8_);fill:#FFFFFF;}
</style>
<g>
	<defs>
		<rect id="SVGID_1_" y="1" width="252" height="117.5"/>
	</defs>
	<clipPath id="SVGID_2_">
		<use xlink:href="#SVGID_1_"  style="overflow:visible;"/>
	</clipPath>
	<path class="st0" d="M207.6,90.2C206.1,46.8,169.8,12,125.1,12c-44.6,0-81,34.8-82.5,78.3H207.6z"/>
</g>
<rect x="152.5" y="73.2" class="st1" width="14.5" height="14.5"/>
<rect x="121.9" y="58.7" class="st2" width="14.5" height="14.5"/>
<rect x="156.3" y="53.9" class="st2" width="14.5" height="14.5"/>
<rect x="123.6" y="29.8" class="st3" width="14.5" height="14.5"/>
<rect x="138" y="44.3" class="st4" width="14.5" height="14.5"/>
<rect x="138" y="58.7" class="st5" width="14.5" height="14.5"/>
<g>
	<defs>
		<rect id="SVGID_3_" y="1" width="252" height="117.5"/>
	</defs>
	<clipPath id="SVGID_4_">
		<use xlink:href="#SVGID_3_"  style="overflow:visible;"/>
	</clipPath>
	<path class="st6" d="M215.1,90.1c0-2.9-0.1-5.8-0.4-8.7c-0.3-2.9-0.7-5.8-1.3-8.6c-0.6-2.9-1.3-5.7-2.1-8.5
		c-0.8-2.8-1.8-5.5-2.9-8.2c-1.1-2.7-2.4-5.3-3.7-7.9c-1.4-2.6-2.9-5.1-4.5-7.5c-1.6-2.4-3.4-4.8-5.2-7c-1.8-2.3-3.8-4.4-5.9-6.5
		c-2.1-2.1-4.2-4-6.5-5.9c-2.3-1.8-4.6-3.6-7-5.2c-2.4-1.6-4.9-3.1-7.5-4.5c-2.6-1.4-5.2-2.6-7.9-3.7c-2.7-1.1-5.4-2.1-8.2-2.9
		c-2.8-0.8-5.6-1.6-8.5-2.1c-2.9-0.6-5.7-1-8.6-1.3C131.8,1.1,128.9,1,126,1c-2.9,0-5.8,0.1-8.7,0.4c-2.9,0.3-5.8,0.7-8.6,1.3
		c-2.9,0.6-5.7,1.3-8.5,2.1c-2.8,0.8-5.5,1.8-8.2,2.9c-2.7,1.1-5.3,2.4-7.9,3.7c-2.6,1.4-5.1,2.9-7.5,4.5c-2.4,1.6-4.8,3.4-7,5.2
		c-2.3,1.8-4.4,3.8-6.5,5.9c-2.1,2.1-4,4.2-5.9,6.5c-1.8,2.3-3.6,4.6-5.2,7c-1.6,2.4-3.1,4.9-4.5,7.5c-1.4,2.6-2.6,5.2-3.7,7.9
		c-1.1,2.7-2.1,5.4-2.9,8.2c-0.8,2.8-1.6,5.6-2.1,8.5c-0.6,2.9-1,5.7-1.3,8.6c-0.3,2.9-0.4,5.8-0.4,8.7h5.3c0-2.7,0.1-5.5,0.4-8.2
		c0.3-2.7,0.7-5.4,1.2-8.1c0.5-2.7,1.2-5.3,2-8c0.8-2.6,1.7-5.2,2.8-7.7c1-2.5,2.2-5,3.5-7.4c1.3-2.4,2.7-4.8,4.2-7
		c1.5-2.3,3.2-4.5,4.9-6.6c1.7-2.1,3.6-4.2,5.5-6.1c1.9-1.9,4-3.8,6.1-5.5c2.1-1.7,4.3-3.4,6.6-4.9c2.3-1.5,4.6-2.9,7-4.2
		c2.4-1.3,4.9-2.5,7.4-3.5c2.5-1,5.1-2,7.7-2.8c2.6-0.8,5.3-1.5,8-2c2.7-0.5,5.4-0.9,8.1-1.2c2.7-0.3,5.5-0.4,8.2-0.4
		c2.7,0,5.5,0.1,8.2,0.4c2.7,0.3,5.4,0.7,8.1,1.2c2.7,0.5,5.3,1.2,8,2c2.6,0.8,5.2,1.7,7.7,2.8c2.5,1,5,2.2,7.4,3.5
		c2.4,1.3,4.8,2.7,7,4.2c2.3,1.5,4.5,3.2,6.6,4.9c2.1,1.7,4.2,3.6,6.1,5.5c1.9,1.9,3.8,4,5.5,6.1c1.7,2.1,3.4,4.3,4.9,6.6
		c1.5,2.3,2.9,4.6,4.2,7c1.3,2.4,2.5,4.9,3.5,7.4c1,2.5,2,5.1,2.8,7.7c0.8,2.6,1.5,5.3,2,8c0.5,2.7,0.9,5.4,1.2,8.1
		c0.3,2.7,0.4,5.5,0.4,8.2H215.1z"/>
	<path class="st7" d="M209.7,90.1c0-2.7-0.1-5.5-0.4-8.2c-0.3-2.7-0.7-5.4-1.2-8.1c-0.5-2.7-1.2-5.3-2-8c-0.8-2.6-1.7-5.2-2.8-7.7
		c-1-2.5-2.2-5-3.5-7.4c-1.3-2.4-2.7-4.8-4.2-7c-1.5-2.3-3.2-4.5-4.9-6.6c-1.7-2.1-3.6-4.2-5.5-6.1c-1.9-1.9-4-3.8-6.1-5.5
		c-2.1-1.7-4.3-3.4-6.6-4.9c-2.3-1.5-4.6-2.9-7-4.2c-2.4-1.3-4.9-2.5-7.4-3.5c-2.5-1-5.1-2-7.7-2.8c-2.6-0.8-5.3-1.5-8-2
		c-2.7-0.5-5.4-0.9-8.1-1.2c-2.7-0.3-5.5-0.4-8.2-0.4c-2.7,0-5.5,0.1-8.2,0.4c-2.7,0.3-5.4,0.7-8.1,1.2c-2.7,0.5-5.3,1.2-8,2
		c-2.6,0.8-5.2,1.7-7.7,2.8c-2.5,1-5,2.2-7.4,3.5c-2.4,1.3-4.8,2.7-7,4.2c-2.3,1.5-4.5,3.2-6.6,4.9c-2.1,1.7-4.2,3.6-6.1,5.5
		c-1.9,1.9-3.8,4-5.5,6.1c-1.7,2.1-3.4,4.3-4.9,6.6c-1.5,2.3-2.9,4.6-4.2,7c-1.3,2.4-2.5,4.9-3.5,7.4c-1,2.5-2,5.1-2.8,7.7
		c-0.8,2.6-1.5,5.3-2,8c-0.5,2.7-0.9,5.4-1.2,8.1c-0.3,2.7-0.4,5.5-0.4,8.2h4c0-2.6,0.1-5.2,0.4-7.8c0.3-2.6,0.6-5.2,1.1-7.7
		c0.5-2.6,1.1-5.1,1.9-7.6c0.8-2.5,1.6-5,2.6-7.4c1-2.4,2.1-4.8,3.3-7.1c1.2-2.3,2.6-4.5,4-6.7c1.4-2.2,3-4.3,4.7-6.3
		c1.7-2,3.4-4,5.3-5.8c1.8-1.8,3.8-3.6,5.8-5.3c2-1.7,4.1-3.2,6.3-4.7c2.2-1.4,4.4-2.8,6.7-4c2.3-1.2,4.7-2.3,7.1-3.3
		c2.4-1,4.9-1.9,7.4-2.6c2.5-0.8,5-1.4,7.6-1.9c2.6-0.5,5.1-0.9,7.7-1.1c2.6-0.3,5.2-0.4,7.8-0.4c2.6,0,5.2,0.1,7.8,0.4
		c2.6,0.3,5.2,0.6,7.7,1.1c2.6,0.5,5.1,1.1,7.6,1.9c2.5,0.8,5,1.6,7.4,2.6c2.4,1,4.8,2.1,7.1,3.3c2.3,1.2,4.5,2.6,6.7,4
		c2.2,1.4,4.3,3,6.3,4.7c2,1.7,4,3.4,5.8,5.3c1.8,1.8,3.6,3.8,5.3,5.8c1.7,2,3.2,4.1,4.7,6.3c1.4,2.2,2.8,4.4,4,6.7
		c1.2,2.3,2.3,4.7,3.3,7.1c1,2.4,1.9,4.9,2.6,7.4c0.8,2.5,1.4,5,1.9,7.6c0.5,2.6,0.9,5.1,1.1,7.7c0.3,2.6,0.4,5.2,0.4,7.8H209.7z"/>
	<path class="st8" d="M205.7,90.1c0-2.6-0.1-5.2-0.4-7.8c-0.3-2.6-0.6-5.2-1.1-7.7c-0.5-2.6-1.1-5.1-1.9-7.6c-0.8-2.5-1.6-5-2.6-7.4
		c-1-2.4-2.1-4.8-3.3-7.1c-1.2-2.3-2.6-4.5-4-6.7c-1.4-2.2-3-4.3-4.7-6.3c-1.7-2-3.4-4-5.3-5.8c-1.8-1.8-3.8-3.6-5.8-5.3
		c-2-1.7-4.1-3.2-6.3-4.7c-2.2-1.4-4.4-2.8-6.7-4c-2.3-1.2-4.7-2.3-7.1-3.3c-2.4-1-4.9-1.9-7.4-2.6c-2.5-0.8-5-1.4-7.6-1.9
		c-2.6-0.5-5.1-0.9-7.7-1.1c-2.6-0.3-5.2-0.4-7.8-0.4c-2.6,0-5.2,0.1-7.8,0.4c-2.6,0.3-5.2,0.6-7.7,1.1c-2.6,0.5-5.1,1.1-7.6,1.9
		c-2.5,0.8-5,1.6-7.4,2.6c-2.4,1-4.8,2.1-7.1,3.3c-2.3,1.2-4.5,2.6-6.7,4c-2.2,1.4-4.3,3-6.3,4.7c-2,1.7-4,3.4-5.8,5.3
		c-1.8,1.8-3.6,3.8-5.3,5.8c-1.7,2-3.2,4.1-4.7,6.3c-1.4,2.2-2.8,4.4-4,6.7c-1.2,2.3-2.3,4.7-3.3,7.1c-1,2.4-1.9,4.9-2.6,7.4
		c-0.8,2.5-1.4,5-1.9,7.6c-0.5,2.6-0.9,5.1-1.1,7.7c-0.3,2.6-0.4,5.2-0.4,7.8h4c0-2.5,0.1-5,0.4-7.4c0.2-2.5,0.6-4.9,1.1-7.3
		c0.5-2.4,1.1-4.8,1.8-7.2c0.7-2.4,1.6-4.7,2.5-7c0.9-2.3,2-4.5,3.2-6.7c1.2-2.2,2.4-4.3,3.8-6.4c1.4-2.1,2.9-4.1,4.4-6
		c1.6-1.9,3.2-3.8,5-5.5c1.8-1.8,3.6-3.4,5.5-5c1.9-1.6,3.9-3,6-4.4c2.1-1.4,4.2-2.7,6.4-3.8c2.2-1.2,4.4-2.2,6.7-3.2
		c2.3-0.9,4.6-1.8,7-2.5c2.4-0.7,4.8-1.3,7.2-1.8c2.4-0.5,4.9-0.8,7.3-1.1c2.5-0.2,4.9-0.4,7.4-0.4c2.5,0,5,0.1,7.4,0.4
		c2.5,0.2,4.9,0.6,7.3,1.1c2.4,0.5,4.8,1.1,7.2,1.8c2.4,0.7,4.7,1.6,7,2.5c2.3,0.9,4.5,2,6.7,3.2c2.2,1.2,4.3,2.4,6.4,3.8
		c2.1,1.4,4.1,2.9,6,4.4c1.9,1.6,3.8,3.2,5.5,5c1.8,1.8,3.4,3.6,5,5.5c1.6,1.9,3,3.9,4.4,6c1.4,2.1,2.7,4.2,3.8,6.4
		c1.2,2.2,2.2,4.4,3.2,6.7c0.9,2.3,1.8,4.6,2.5,7c0.7,2.4,1.3,4.8,1.8,7.2c0.5,2.4,0.8,4.9,1.1,7.3c0.2,2.5,0.4,4.9,0.4,7.4H205.7z"
		/>
</g>
<g>
	<defs>
		<rect id="SVGID_5_" x="83.2" y="29" width="68.7" height="59.2"/>
	</defs>
	<clipPath id="SVGID_6_">
		<use xlink:href="#SVGID_5_"  style="overflow:visible;"/>
	</clipPath>
	<path class="st9" d="M151,85.4c-0.1,0.2-0.5,1-0.5,1.2c0,0-0.1,0.3-0.6,0.4c-3.8,1.1-29.9,0.7-31.1-0.4c0,0-3.7-3.1-7.3-10.2
		c0,0-10.3-21.7-15.7-22.4c0,0-2.9-0.9-2.5,6.7c0,0,0.9,22.4,1.2,27h-2.6l-0.3-4.2c0,0-1.2-15.7-2.8-20.7c0,0-2.1-8-3.3-10.8
		c0,0-3.1-6.5-0.8-11.1c0,0,0.8-3.6,7.7-11.1c0,0,5.5,6,7.8,9.6c0,0,9.7,15.1,12.9,20.5c0,0,7,12.5,14.1,14.8c0,0,4.1,1.3,8.9-0.1
		C135.9,74.5,154.6,76.8,151,85.4"/>
	<path class="st10" d="M151,85.4c-0.1,0.2-0.5,1-0.5,1.2c0,0-0.1,0.3-0.6,0.4c-3.8,1.1-29.9,0.7-31.1-0.4c0,0-3.7-3.1-7.3-10.2
		c0,0-10.3-21.7-15.7-22.4c0,0-2.9-0.9-2.5,6.7c0,0,0.9,22.4,1.2,27h-2.6l-0.3-4.2c0,0-1.2-15.7-2.8-20.7c0,0-2.1-8-3.3-10.8
		c0,0-3.1-6.5-0.8-11.1c0,0,0.8-3.6,7.7-11.1c0,0,5.5,6,7.8,9.6c0,0,9.7,15.1,12.9,20.5c0,0,7,12.5,14.1,14.8c0,0,4.1,1.3,8.9-0.1
		C135.9,74.5,154.6,76.8,151,85.4z"/>
</g>
<rect y="89.8" width="252" height="28.7"/>
<g>
	<defs>
		<rect id="SVGID_7_" y="1" width="252" height="117.5"/>
	</defs>
	<clipPath id="SVGID_8_">
		<use xlink:href="#SVGID_7_"  style="overflow:visible;"/>
	</clipPath>
	<path class="st11" d="M246.6,114.2v-2.5h-11.6v-6.3h9v-2.5h-9v-6.3h11.6v-2.5h-14.1v20.1H246.6z M227.2,99.7c0,0.9-0.4,1.7-1.2,2.3
		c-0.7,0.6-1.6,0.8-2.6,0.8h-6v-6.3h6c1,0,1.8,0.3,2.6,0.8C226.8,98,227.2,98.8,227.2,99.7 M229.7,99.7c0-1.6-0.7-3-1.9-4.1
		c-1.2-1-2.7-1.6-4.4-1.6h-8.5v20.1h2.5v-8.8h6c1.7,0,3.1-0.5,4.4-1.6C229.1,102.7,229.7,101.4,229.7,99.7 M208.5,99.7
		c0,0.9-0.4,1.7-1.2,2.3c-0.7,0.6-1.6,0.8-2.6,0.8h-6v-6.3h6c1,0,1.8,0.3,2.6,0.8C208.1,98,208.5,98.8,208.5,99.7 M213.1,114.2
		l-4.6-7c-0.8-1.3-1.5-2-2-2c1.3-0.3,2.4-1,3.2-2c0.9-1,1.3-2.2,1.3-3.4c0-1.6-0.7-3-1.9-4.1c-1.2-1-2.7-1.6-4.4-1.6h-8.5v20.1h2.5
		v-8.8h3c1.8,0,3,0.6,3.8,1.8l4.6,7H213.1z M188.5,107.1h-6.8l3.4-9.4L188.5,107.1z M193.8,114.2l-7.3-20.1h-2.7l-7.3,20.1h2.7
		l1.6-4.5h8.6l1.7,4.5H193.8z M174.2,111.6l-1.8-1.7c-1.6,1.5-3.4,2.3-5.7,2.3c-2.2,0-4.1-0.8-5.7-2.4c-1.6-1.6-2.4-3.5-2.4-5.7
		s0.8-4.1,2.4-5.7c1.6-1.6,3.4-2.4,5.7-2.4c2.2,0,4.1,0.8,5.7,2.3l1.8-1.8c-2.1-2.1-4.5-3.1-7.5-3.1c-2.9,0-5.4,1-7.5,3.1
		c-2,2.1-3.1,4.5-3.1,7.4s1,5.4,3.1,7.5c2.1,2.1,4.6,3.1,7.5,3.1C169.7,114.7,172.2,113.7,174.2,111.6 M153.4,108.7
		c0-2.4-1.1-4-3.4-4.9c-2.1-0.4-4.2-0.9-6.3-1.3c-2.3-0.5-3.4-1.6-3.4-3.2c0-1.1,0.6-2,1.8-2.6c0.9-0.5,2-0.7,3.3-0.7
		c1.2,0,2.3,0.3,3.3,0.7c1.2,0.6,1.8,1.5,1.8,2.6h2.5c0-1.8-0.8-3.3-2.5-4.4c-1.5-1-3.2-1.5-5.1-1.5c-1.9,0-3.6,0.5-5.1,1.5
		c-1.7,1.1-2.5,2.6-2.5,4.4c0,2.4,1.1,4.1,3.4,5c2.1,0.4,4.2,0.8,6.3,1.3c2.3,0.5,3.4,1.6,3.4,3.1c0,1.2-0.6,2.1-2,2.7
		c-1,0.5-2.2,0.7-3.6,0.7s-2.6-0.2-3.6-0.7c-1.3-0.6-2-1.5-2-2.7h-2.5c0,1.9,0.9,3.4,2.7,4.5c1.6,0.9,3.3,1.4,5.3,1.4
		c2,0,3.8-0.5,5.3-1.4C152.5,112.1,153.4,110.6,153.4,108.7 M128.5,110.6c-1.2,1.1-2.5,1.6-4,1.6c-1,0-1.8-0.3-2.5-1.1
		c-0.7-0.7-1.1-1.6-1.1-2.6c0-0.9,0.4-1.8,1.1-2.5c0.4-0.4,1.2-1,2.4-1.7L128.5,110.6z M127.8,98.1c0,0.7-0.4,1.3-1.1,1.8l-1.5,0.9
		l-1.1-1.7c-0.2-0.3-0.4-0.7-0.4-1.1c0-1.1,0.9-2,2-2C126.8,96,127.8,96.9,127.8,98.1 M133.8,114.2l-2.2-3.4
		c0.3-0.4,0.5-0.9,0.7-1.3h0l1.2-2.7l-2.3-1l-1.1,2.6l-3.5-5.4c1.3-0.8,2.2-1.5,2.6-1.9c0.8-0.8,1.1-1.8,1.1-3
		c0-1.2-0.5-2.3-1.4-3.2c-0.9-0.9-2-1.3-3.2-1.3c-1.2,0-2.3,0.4-3.2,1.3c-0.9,0.9-1.3,1.9-1.3,3.2c0,0.7,0.2,1.4,0.6,2.2
		c0.1,0.2,0.5,0.9,1.3,2c-1.5,0.9-2.6,1.8-3.2,2.6c-1,1.1-1.4,2.4-1.4,3.8c0,1.7,0.6,3.1,1.8,4.3c1.2,1.2,2.6,1.8,4.3,1.8
		c2,0,3.8-0.7,5.4-2l0.9,1.5H133.8z M114.7,114.2v-2.5h-11.6v-6.3h9v-2.5h-9v-6.3h11.6v-2.5h-14.1v20.1H114.7z M95.3,99.7
		c0,0.9-0.4,1.7-1.2,2.3c-0.7,0.6-1.6,0.8-2.6,0.8h-6v-6.3h6c1,0,1.8,0.3,2.6,0.8C94.9,98,95.3,98.8,95.3,99.7 M97.8,99.7
		c0-1.6-0.7-3-1.9-4.1c-1.2-1-2.7-1.6-4.4-1.6H83v20.1h2.5v-8.8h6c1.7,0,3.1-0.5,4.4-1.6C97.2,102.7,97.8,101.4,97.8,99.7
		 M76.6,99.7c0,0.9-0.4,1.7-1.2,2.3c-0.7,0.6-1.6,0.8-2.6,0.8h-6v-6.3h6c1,0,1.8,0.3,2.6,0.8C76.2,98,76.6,98.8,76.6,99.7
		 M81.1,114.2l-4.6-7c-0.8-1.3-1.5-2-2-2c1.3-0.3,2.4-1,3.2-2c0.9-1,1.3-2.2,1.3-3.4c0-1.6-0.7-3-1.9-4.1c-1.2-1-2.7-1.6-4.4-1.6
		h-8.5v20.1h2.5v-8.8h3c1.8,0,3,0.6,3.8,1.8l4.6,7H81.1z M56.6,107.1h-6.8l3.4-9.4L56.6,107.1z M61.8,114.2l-7.3-20.1h-2.7
		l-7.3,20.1h2.7l1.6-4.5h8.6l1.7,4.5H61.8z M42.3,111.6l-1.8-1.7c-1.6,1.5-3.4,2.3-5.7,2.3c-2.2,0-4.1-0.8-5.7-2.4
		c-1.6-1.6-2.4-3.5-2.4-5.7s0.8-4.1,2.4-5.7c1.6-1.6,3.4-2.4,5.7-2.4c2.2,0,4.1,0.8,5.7,2.3l1.8-1.8c-2.1-2.1-4.5-3.1-7.5-3.1
		c-2.9,0-5.4,1-7.5,3.1c-2,2.1-3.1,4.5-3.1,7.4s1,5.4,3.1,7.5c2.1,2.1,4.6,3.1,7.5,3.1C37.8,114.7,40.2,113.7,42.3,111.6
		 M21.5,108.7c0-2.4-1.1-4-3.4-4.9c-2.1-0.4-4.2-0.9-6.3-1.3c-2.3-0.5-3.4-1.6-3.4-3.2c0-1.1,0.6-2,1.8-2.6c0.9-0.5,2-0.7,3.3-0.7
		c1.2,0,2.3,0.3,3.3,0.7c1.2,0.6,1.8,1.5,1.8,2.6h2.5c0-1.8-0.8-3.3-2.5-4.4c-1.5-1-3.2-1.5-5.1-1.5c-1.9,0-3.6,0.5-5.1,1.5
		c-1.7,1.1-2.5,2.6-2.5,4.4c0,2.4,1.1,4.1,3.4,5c2.1,0.4,4.2,0.8,6.3,1.3c2.3,0.5,3.4,1.6,3.4,3.1c0,1.2-0.6,2.1-2,2.7
		c-1,0.5-2.2,0.7-3.6,0.7c-1.4,0-2.6-0.2-3.6-0.7c-1.3-0.6-2-1.5-2-2.7H5.4c0,1.9,0.9,3.4,2.7,4.5c1.6,0.9,3.3,1.4,5.3,1.4
		c2,0,3.8-0.5,5.3-1.4C20.5,112.1,21.5,110.6,21.5,108.7"/>
</g>
</svg>
