<?xml version="1.0" encoding="utf-8"?>
<!-- Generator: Adobe Illustrator 24.3.0, SVG Export Plug-In . SVG Version: 6.00 Build 0)  -->
<svg version="1.1" id="Layer_1" xmlns="http://www.w3.org/2000/svg" xmlns:xlink="http://www.w3.org/1999/xlink" x="0px" y="0px"
	 viewBox="0 0 565.5 568.5" style="enable-background:new 0 0 565.5 568.5;" xml:space="preserve">
<style type="text/css">
	.st0{fill:#3CBB28;}
</style>
<g>
	<path class="st0" d="M285.6,558.4c-48.5,0-95.8-12.8-137.4-37.1L21,556l41.6-113c-15-21.3-26.9-44.5-35.3-69.1
		c-9.7-28.4-14.6-58.1-14.6-88.4c0-36.8,7.2-72.6,21.5-106.2c13.7-32.5,33.4-61.7,58.5-86.7s54.2-44.7,86.7-58.5
		c33.7-14.2,69.4-21.5,106.2-21.5c36.8,0,72.6,7.2,106.2,21.5c32.5,13.7,61.7,33.4,86.7,58.5c25.1,25.1,44.7,54.2,58.5,86.7
		c14.2,33.7,21.5,69.4,21.5,106.2c0,36.8-7.2,72.6-21.5,106.2c-13.7,32.5-33.4,61.7-58.5,86.7c-25.1,25.1-54.2,44.7-86.7,58.5
		C358.1,551.2,322.4,558.4,285.6,558.4z M153.1,486.3l6,3.7c37.9,23.5,81.6,35.9,126.5,35.9c132.6,0,240.4-107.8,240.4-240.4
		C526,153,418.1,45.1,285.6,45.1S45.1,153,45.1,285.5c0,52.9,16.8,103,48.7,145.1l5.4,7.1l-25.9,70.4L153.1,486.3z"/>
</g>
<g>
	<path class="st0" d="M191.1,144.4c6.1-2.2,12.9-1.3,18.5,1.8c3.4,1.9,5.9,4.8,8.6,7.4c13.8,13.8,27.5,27.5,41.3,41.3
		c4.2,4.2,6.9,10,6.8,16c0.2,4.9-1.5,9.8-4.1,13.9c-1.8,2.3-3.6,4.6-5.8,6.5c-6.7,6.7-13.4,13.3-20,20c1.9,4.1,4.3,7.8,6.5,11.7
		c2.1,4,4.6,7.7,7,11.5c8.4,13.8,18.7,26.4,30.2,37.7c10.6,10.4,22.3,19.7,35,27.4c7.5,4.9,15.3,9.2,23.2,13.4
		c7.4-7.5,14.9-14.9,22.3-22.3c2.7-2.8,6-5.1,9.8-6.3c5.7-2.2,12.2-1.8,17.7,0.8c4.3,1.9,7.4,5.5,10.7,8.7
		c13.6,13.6,27.2,27.2,40.8,40.9c4.2,4.2,6.6,10,6.8,16v1.1c-0.1,3.5-1.2,6.9-2.7,10.1c-2.9,5.8-8.2,9.7-12.6,14.2
		c-2,1.9-3.8,4.2-6.3,5.4c-6.6,4.8-13.9,8.7-21.7,11.1c-3.6,1.4-7.5,2-11.2,2.7c-4.2,0.8-8.4,1-12.6,0.5c-5.3,0-10.6-0.9-15.8-1.7
		c-4.7-0.6-9.2-2-13.8-2.9c-4.5-1.4-9.2-2.5-13.6-4.3c-5.7-1.7-11.1-4.3-16.6-6.5c-4.9-2.3-9.8-4.8-14.7-7.3
		c-6.7-3.9-13.5-7.6-19.9-12c-7.9-4.9-15.2-10.8-22.7-16.3c-8.2-6.6-16.2-13.5-23.8-20.9c-7.1-6.5-13.6-13.6-20.3-20.5
		c-19.2-20.6-37.5-42.6-50.4-67.8c-6.5-13-11.6-26.7-13.7-41.1c-1.8-10.2-2-20.7-0.9-31c1.1-13.8,6-27.4,14.3-38.6
		c0.7-1.1,1.1-2.4,2.1-3.3c3.5-3.5,6.9-6.9,10.4-10.4C183.2,148.3,186.8,145.5,191.1,144.4z"/>
</g>
</svg>
